<svg xmlns="http://www.w3.org/2000/svg" viewBox="0 0 100 100" fill="none" shape-rendering="auto" width="1600" height="1600"><metadata xmlns:rdf="http://www.w3.org/1999/02/22-rdf-syntax-ns#" xmlns:xsi="http://www.w3.org/2001/XMLSchema-instance" xmlns:dc="http://purl.org/dc/elements/1.1/" xmlns:dcterms="http://purl.org/dc/terms/"><rdf:RDF><rdf:Description><dc:title>Shapes</dc:title><dc:creator>DiceBear</dc:creator><dc:source xsi:type="dcterms:URI">https://www.dicebear.com</dc:source><dcterms:license xsi:type="dcterms:URI">https://creativecommons.org/publicdomain/zero/1.0/</dcterms:license><dc:rights>„Shapes” (https://www.dicebear.com) by „DiceBear”, licensed under „CC0 1.0” (https://creativecommons.org/publicdomain/zero/1.0/)</dc:rights></rdf:Description></rdf:RDF></metadata><mask id="viewboxMask"><rect width="100" height="100" rx="0" ry="0" x="0" y="0" fill="#fff" /></mask><g mask="url(#viewboxMask)"><rect fill="url(#backgroundLinear)" width="100" height="100" x="0" y="0" /><defs><linearGradient id="backgroundLinear" gradientTransform="rotate(322 0.5 0.5)"><stop stop-color="#f0f9ff"/><stop offset="1" stop-color="#e0f2fe"/></linearGradient></defs><g transform="matrix(1.2 0 0 1.2 -10 -10)"><g transform="translate(-38, -10) rotate(-54 50 50)"><path d="m50 7 50 86.6H0L50 7Z" fill="#7dd3fc"/></g></g><g transform="matrix(.8 0 0 .8 10 10)"><g transform="translate(-25, 9) rotate(115 50 50)"><path d="M100 50A50 50 0 1 1 0 50a50 50 0 0 1 100 0Z" fill="#bae6fd"/></g></g><g transform="matrix(.4 0 0 .4 30 30)"><g transform="translate(-5, -7) rotate(-165 50 50)"><path fill-rule="evenodd" clip-rule="evenodd" d="M50 7 0 93.6h100L50 7Zm0 20L17.3 83.6h65.4L50 27Z" fill="#93c5fd"/></g></g></g></svg>