<svg xmlns="http://www.w3.org/2000/svg" viewBox="0 0 100 100" fill="none" shape-rendering="auto" width="1600" height="1600"><metadata xmlns:rdf="http://www.w3.org/1999/02/22-rdf-syntax-ns#" xmlns:xsi="http://www.w3.org/2001/XMLSchema-instance" xmlns:dc="http://purl.org/dc/elements/1.1/" xmlns:dcterms="http://purl.org/dc/terms/"><rdf:RDF><rdf:Description><dc:title>Shapes</dc:title><dc:creator>DiceBear</dc:creator><dc:source xsi:type="dcterms:URI">https://www.dicebear.com</dc:source><dcterms:license xsi:type="dcterms:URI">https://creativecommons.org/publicdomain/zero/1.0/</dcterms:license><dc:rights>„Shapes” (https://www.dicebear.com) by „DiceBear”, licensed under „CC0 1.0” (https://creativecommons.org/publicdomain/zero/1.0/)</dc:rights></rdf:Description></rdf:RDF></metadata><mask id="viewboxMask"><rect width="100" height="100" rx="0" ry="0" x="0" y="0" fill="#fff" /></mask><g mask="url(#viewboxMask)"><rect fill="url(#backgroundLinear)" width="100" height="100" x="0" y="0" /><defs><linearGradient id="backgroundLinear" gradientTransform="rotate(201 0.5 0.5)"><stop stop-color="#f8fafc"/><stop offset="1" stop-color="#f1f5f9"/></linearGradient></defs><g transform="matrix(1.2 0 0 1.2 -10 -10)"><g transform="translate(25, -24) rotate(91 50 50)"><path d="M100 50A50 50 0 1 1 0 50a50 50 0 0 1 100 0Z" fill="#94a3b8"/></g></g><g transform="matrix(.8 0 0 .8 10 10)"><g transform="translate(-40, -6) rotate(-13 50 50)"><path d="m50 7 50 86.6H0L50 7Z" fill="#e2e8f0"/></g></g><g transform="matrix(.4 0 0 .4 30 30)"><g transform="translate(5, 5) rotate(4 50 50)"><path fill-rule="evenodd" clip-rule="evenodd" d="M50 90a40 40 0 1 0 0-80 40 40 0 0 0 0 80Zm0 10A50 50 0 1 0 50 0a50 50 0 0 0 0 100Z" fill="#a5b4fc"/></g></g></g></svg>